name rise30.9205peak61.366fall85.3838.mot
datacolumns 19
datarows 33
range 7.99330700000000 8.04664000000000
endheader
time	ground_force1_vx	ground_force1_vy	ground_force1_vz	ground_force1_px	ground_force1_py	ground_force1_pz	ground_force2_vx	ground_force2_vy	ground_force2_vz	ground_force2_px	ground_force2_py	ground_force2_pz	ground_torque1_x	ground_torque1_y	ground_torque1_z	ground_torque2_x	ground_torque2_y	ground_torque2_z	
7.99330700000000	59.26531800000000	759.08822299999997	53.17889100000000	0.33506500000000	0.00000000000000	0.10722100000000	0.00000000000000	0.00000000000000	0.00000000000000	0.00000000000000	0.00000000000000	0.00000000000000	0.00000000000000	21.53166100000000	0.00000000000000	0.00000000000000	0.00000000000000	0.00000000000000	
7.99497300000000	58.72928300000000	762.38881300000003	53.33205300000000	0.33412600000000	0.00000000000000	0.10724300000000	0.00000000000000	0.00000000000000	0.00000000000000	0.00000000000000	0.00000000000000	0.00000000000000	0.00000000000000	21.62799900000000	0.00000000000000	0.00000000000000	0.00000000000000	0.00000000000000	
7.99663600000000	58.19859000000000	765.58036000000004	53.48369600000000	0.33321500000000	0.00000000000000	0.10726400000000	0.00000000000000	0.00000000000000	0.00000000000000	0.00000000000000	0.00000000000000	0.00000000000000	0.00000000000000	21.72556000000000	0.00000000000000	0.00000000000000	0.00000000000000	0.00000000000000	
7.99832600000000	57.67356100000000	768.66006400000003	53.63319500000000	0.33233000000000	0.00000000000000	0.10728400000000	0.00000000000000	0.00000000000000	0.00000000000000	0.00000000000000	0.00000000000000	0.00000000000000	0.00000000000000	21.82385800000000	0.00000000000000	0.00000000000000	0.00000000000000	0.00000000000000	
7.99997300000000	57.15444700000000	771.62522600000000	53.77988000000000	0.33147100000000	0.00000000000000	0.10730300000000	0.00000000000000	0.00000000000000	0.00000000000000	0.00000000000000	0.00000000000000	0.00000000000000	0.00000000000000	21.92237800000000	0.00000000000000	0.00000000000000	0.00000000000000	0.00000000000000	
8.00163900000000	56.64143500000000	774.47325400000000	53.92304400000000	0.33063500000000	0.00000000000000	0.10732100000000	0.00000000000000	0.00000000000000	0.00000000000000	0.00000000000000	0.00000000000000	0.00000000000000	0.00000000000000	22.02058400000000	0.00000000000000	0.00000000000000	0.00000000000000	0.00000000000000	
8.00332600000000	56.13465000000000	777.20168300000000	54.06194900000000	0.32982200000000	0.00000000000000	0.10733800000000	0.00000000000000	0.00000000000000	0.00000000000000	0.00000000000000	0.00000000000000	0.00000000000000	0.00000000000000	22.11791600000000	0.00000000000000	0.00000000000000	0.00000000000000	0.00000000000000	
8.00497500000000	55.63415600000000	779.80818799999997	54.19583300000000	0.32902900000000	0.00000000000000	0.10735400000000	0.00000000000000	0.00000000000000	0.00000000000000	0.00000000000000	0.00000000000000	0.00000000000000	0.00000000000000	22.21380200000000	0.00000000000000	0.00000000000000	0.00000000000000	0.00000000000000	
8.00664000000000	55.13996200000000	782.29059299999994	54.32391700000000	0.32825700000000	0.00000000000000	0.10736900000000	0.00000000000000	0.00000000000000	0.00000000000000	0.00000000000000	0.00000000000000	0.00000000000000	0.00000000000000	22.30765800000000	0.00000000000000	0.00000000000000	0.00000000000000	0.00000000000000	
8.00831500000000	54.65202600000000	784.64688699999999	54.44540900000000	0.32750200000000	0.00000000000000	0.10738200000000	0.00000000000000	0.00000000000000	0.00000000000000	0.00000000000000	0.00000000000000	0.00000000000000	0.00000000000000	22.39889300000000	0.00000000000000	0.00000000000000	0.00000000000000	0.00000000000000	
8.00997500000000	54.17025500000000	786.87523299999998	54.55951700000000	0.32676300000000	0.00000000000000	0.10739500000000	0.00000000000000	0.00000000000000	0.00000000000000	0.00000000000000	0.00000000000000	0.00000000000000	0.00000000000000	22.48691400000000	0.00000000000000	0.00000000000000	0.00000000000000	0.00000000000000	
8.01163800000000	53.69451400000000	788.97397899999999	54.66545000000000	0.32603800000000	0.00000000000000	0.10740600000000	0.00000000000000	0.00000000000000	0.00000000000000	0.00000000000000	0.00000000000000	0.00000000000000	0.00000000000000	22.57112700000000	0.00000000000000	0.00000000000000	0.00000000000000	0.00000000000000	
8.01331700000000	53.22462700000000	790.94166900000005	54.76242800000000	0.32532600000000	0.00000000000000	0.10741700000000	0.00000000000000	0.00000000000000	0.00000000000000	0.00000000000000	0.00000000000000	0.00000000000000	0.00000000000000	22.65094800000000	0.00000000000000	0.00000000000000	0.00000000000000	0.00000000000000	
8.01497600000000	52.76038200000000	792.77705000000003	54.84968500000000	0.32462500000000	0.00000000000000	0.10742600000000	0.00000000000000	0.00000000000000	0.00000000000000	0.00000000000000	0.00000000000000	0.00000000000000	0.00000000000000	22.72580100000000	0.00000000000000	0.00000000000000	0.00000000000000	0.00000000000000	
8.01664100000000	52.30153400000000	794.47907899999996	54.92648200000000	0.32393300000000	0.00000000000000	0.10743400000000	0.00000000000000	0.00000000000000	0.00000000000000	0.00000000000000	0.00000000000000	0.00000000000000	0.00000000000000	22.79512400000000	0.00000000000000	0.00000000000000	0.00000000000000	0.00000000000000	
8.01832300000000	51.84781200000000	796.04693199999997	54.99210400000000	0.32324700000000	0.00000000000000	0.10744100000000	0.00000000000000	0.00000000000000	0.00000000000000	0.00000000000000	0.00000000000000	0.00000000000000	0.00000000000000	22.85837300000000	0.00000000000000	0.00000000000000	0.00000000000000	0.00000000000000	
8.01996900000000	51.39892000000000	797.48000999999999	55.04587400000000	0.32256600000000	0.00000000000000	0.10744700000000	0.00000000000000	0.00000000000000	0.00000000000000	0.00000000000000	0.00000000000000	0.00000000000000	0.00000000000000	22.91502600000000	0.00000000000000	0.00000000000000	0.00000000000000	0.00000000000000	
8.02163600000000	50.95454100000000	798.77794100000006	55.08715300000000	0.32188800000000	0.00000000000000	0.10745200000000	0.00000000000000	0.00000000000000	0.00000000000000	0.00000000000000	0.00000000000000	0.00000000000000	0.00000000000000	22.96458700000000	0.00000000000000	0.00000000000000	0.00000000000000	0.00000000000000	
8.02331700000000	50.51434200000000	799.94058500000006	55.11534900000000	0.32121100000000	0.00000000000000	0.10745600000000	0.00000000000000	0.00000000000000	0.00000000000000	0.00000000000000	0.00000000000000	0.00000000000000	0.00000000000000	23.00658600000000	0.00000000000000	0.00000000000000	0.00000000000000	0.00000000000000	
8.02497000000000	50.07798100000000	800.96803999999997	55.12991600000000	0.32053300000000	0.00000000000000	0.10746000000000	0.00000000000000	0.00000000000000	0.00000000000000	0.00000000000000	0.00000000000000	0.00000000000000	0.00000000000000	23.04058700000000	0.00000000000000	0.00000000000000	0.00000000000000	0.00000000000000	
8.02663500000000	49.64510500000000	801.86063799999999	55.13036600000000	0.31985100000000	0.00000000000000	0.10746200000000	0.00000000000000	0.00000000000000	0.00000000000000	0.00000000000000	0.00000000000000	0.00000000000000	0.00000000000000	23.06618800000000	0.00000000000000	0.00000000000000	0.00000000000000	0.00000000000000	
8.02831300000000	49.21535600000000	802.61895100000004	55.11626700000000	0.31916500000000	0.00000000000000	0.10746300000000	0.00000000000000	0.00000000000000	0.00000000000000	0.00000000000000	0.00000000000000	0.00000000000000	0.00000000000000	23.08302400000000	0.00000000000000	0.00000000000000	0.00000000000000	0.00000000000000	
8.02997400000000	48.78837500000000	803.24378800000000	55.08724700000000	0.31847300000000	0.00000000000000	0.10746400000000	0.00000000000000	0.00000000000000	0.00000000000000	0.00000000000000	0.00000000000000	0.00000000000000	0.00000000000000	23.09077000000000	0.00000000000000	0.00000000000000	0.00000000000000	0.00000000000000	
8.03163300000000	48.36380600000000	803.73619499999995	55.04300000000000	0.31777100000000	0.00000000000000	0.10746400000000	0.00000000000000	0.00000000000000	0.00000000000000	0.00000000000000	0.00000000000000	0.00000000000000	0.00000000000000	23.08914100000000	0.00000000000000	0.00000000000000	0.00000000000000	0.00000000000000	
8.03332100000000	47.94129600000000	804.09745199999998	54.98328400000000	0.31705900000000	0.00000000000000	0.10746300000000	0.00000000000000	0.00000000000000	0.00000000000000	0.00000000000000	0.00000000000000	0.00000000000000	0.00000000000000	23.07789800000000	0.00000000000000	0.00000000000000	0.00000000000000	0.00000000000000	
8.03497400000000	47.52050300000000	804.32907200000000	54.90792700000000	0.31633500000000	0.00000000000000	0.10746200000000	0.00000000000000	0.00000000000000	0.00000000000000	0.00000000000000	0.00000000000000	0.00000000000000	0.00000000000000	23.05684600000000	0.00000000000000	0.00000000000000	0.00000000000000	0.00000000000000	
8.03663900000000	47.10109200000000	804.43279299999995	54.81682600000000	0.31559800000000	0.00000000000000	0.10746000000000	0.00000000000000	0.00000000000000	0.00000000000000	0.00000000000000	0.00000000000000	0.00000000000000	0.00000000000000	23.02583400000000	0.00000000000000	0.00000000000000	0.00000000000000	0.00000000000000	
8.03830400000000	46.68274400000000	804.41057899999998	54.70994800000000	0.31484400000000	0.00000000000000	0.10745700000000	0.00000000000000	0.00000000000000	0.00000000000000	0.00000000000000	0.00000000000000	0.00000000000000	0.00000000000000	22.98476200000000	0.00000000000000	0.00000000000000	0.00000000000000	0.00000000000000	
8.03997500000000	46.26515500000000	804.26460899999995	54.58733100000000	0.31407400000000	0.00000000000000	0.10745400000000	0.00000000000000	0.00000000000000	0.00000000000000	0.00000000000000	0.00000000000000	0.00000000000000	0.00000000000000	22.93357300000000	0.00000000000000	0.00000000000000	0.00000000000000	0.00000000000000	
8.04164100000000	45.84803800000000	803.99727299999995	54.44908300000000	0.31328500000000	0.00000000000000	0.10745100000000	0.00000000000000	0.00000000000000	0.00000000000000	0.00000000000000	0.00000000000000	0.00000000000000	0.00000000000000	22.87226200000000	0.00000000000000	0.00000000000000	0.00000000000000	0.00000000000000	
8.04331400000000	45.43112600000000	803.61116800000002	54.29538200000000	0.31247700000000	0.00000000000000	0.10744800000000	0.00000000000000	0.00000000000000	0.00000000000000	0.00000000000000	0.00000000000000	0.00000000000000	0.00000000000000	22.80086800000000	0.00000000000000	0.00000000000000	0.00000000000000	0.00000000000000	
8.04497300000000	45.01417200000000	803.10908300000006	54.12647700000000	0.31164700000000	0.00000000000000	0.10744400000000	0.00000000000000	0.00000000000000	0.00000000000000	0.00000000000000	0.00000000000000	0.00000000000000	0.00000000000000	22.71948000000000	0.00000000000000	0.00000000000000	0.00000000000000	0.00000000000000	
8.04664000000000	44.59695600000000	802.49399600000004	53.94268000000000	0.31079500000000	0.00000000000000	0.10744000000000	0.00000000000000	0.00000000000000	0.00000000000000	0.00000000000000	0.00000000000000	0.00000000000000	0.00000000000000	22.62823000000000	0.00000000000000	0.00000000000000	0.00000000000000	0.00000000000000	
